<?xml version="1.0" encoding="UTF-8" standalone="no"?>
<!DOCTYPE svg PUBLIC "-//W3C//DTD SVG 1.1//EN"
 "http://www.w3.org/Graphics/SVG/1.1/DTD/svg11.dtd">
<!-- Generated by graphviz version 2.43.0 (0)
 -->
<!-- Title: snakemake_dag Pages: 1 -->
<svg width="530pt" height="476pt"
 viewBox="0.00 0.00 530.00 476.00" xmlns="http://www.w3.org/2000/svg" xmlns:xlink="http://www.w3.org/1999/xlink">
<g id="graph0" class="graph" transform="scale(1 1) rotate(0) translate(4 472)">
<title>snakemake_dag</title>
<polygon fill="white" stroke="transparent" points="-4,4 -4,-472 526,-472 526,4 -4,4"/>
<!-- 0 -->
<g id="node1" class="node">
<title>0</title>
<path fill="none" stroke="#56d8d8" stroke-width="2" stroke-dasharray="5,2" d="M252.5,-36C252.5,-36 222.5,-36 222.5,-36 216.5,-36 210.5,-30 210.5,-24 210.5,-24 210.5,-12 210.5,-12 210.5,-6 216.5,0 222.5,0 222.5,0 252.5,0 252.5,0 258.5,0 264.5,-6 264.5,-12 264.5,-12 264.5,-24 264.5,-24 264.5,-30 258.5,-36 252.5,-36"/>
<text text-anchor="middle" x="237.5" y="-15.5" font-family="sans" font-size="10.00">all</text>
</g>
<!-- 1 -->
<g id="node2" class="node">
<title>1</title>
<path fill="none" stroke="#d88556" stroke-width="2" stroke-dasharray="5,2" d="M69,-108C69,-108 12,-108 12,-108 6,-108 0,-102 0,-96 0,-96 0,-84 0,-84 0,-78 6,-72 12,-72 12,-72 69,-72 69,-72 75,-72 81,-78 81,-84 81,-84 81,-96 81,-96 81,-102 75,-108 69,-108"/>
<text text-anchor="middle" x="40.5" y="-87.5" font-family="sans" font-size="10.00">plot_full_tree</text>
</g>
<!-- 1&#45;&gt;0 -->
<g id="edge1" class="edge">
<title>1&#45;&gt;0</title>
<path fill="none" stroke="grey" stroke-width="2" d="M81.32,-74.5C116.5,-61.99 166.84,-44.11 200.78,-32.05"/>
<polygon fill="grey" stroke="grey" stroke-width="2" points="202.07,-35.3 210.32,-28.66 199.72,-28.71 202.07,-35.3"/>
</g>
<!-- 2 -->
<g id="node3" class="node">
<title>2</title>
<path fill="none" stroke="#56d882" stroke-width="2" stroke-dasharray="5,2" d="M163.5,-180C163.5,-180 133.5,-180 133.5,-180 127.5,-180 121.5,-174 121.5,-168 121.5,-168 121.5,-156 121.5,-156 121.5,-150 127.5,-144 133.5,-144 133.5,-144 163.5,-144 163.5,-144 169.5,-144 175.5,-150 175.5,-156 175.5,-156 175.5,-168 175.5,-168 175.5,-174 169.5,-180 163.5,-180"/>
<text text-anchor="middle" x="148.5" y="-159.5" font-family="sans" font-size="10.00">nj_tree</text>
</g>
<!-- 2&#45;&gt;1 -->
<g id="edge6" class="edge">
<title>2&#45;&gt;1</title>
<path fill="none" stroke="grey" stroke-width="2" d="M122.08,-143.88C108.09,-134.81 90.72,-123.55 75.61,-113.76"/>
<polygon fill="grey" stroke="grey" stroke-width="2" points="77.32,-110.69 67.02,-108.19 73.51,-116.57 77.32,-110.69"/>
</g>
<!-- 11 -->
<g id="node12" class="node">
<title>11</title>
<path fill="none" stroke="#80d856" stroke-width="2" stroke-dasharray="5,2" d="M197.5,-108C197.5,-108 111.5,-108 111.5,-108 105.5,-108 99.5,-102 99.5,-96 99.5,-96 99.5,-84 99.5,-84 99.5,-78 105.5,-72 111.5,-72 111.5,-72 197.5,-72 197.5,-72 203.5,-72 209.5,-78 209.5,-84 209.5,-84 209.5,-96 209.5,-96 209.5,-102 203.5,-108 197.5,-108"/>
<text text-anchor="middle" x="154.5" y="-87.5" font-family="sans" font-size="10.00">plot_all_sequences</text>
</g>
<!-- 2&#45;&gt;11 -->
<g id="edge17" class="edge">
<title>2&#45;&gt;11</title>
<path fill="none" stroke="grey" stroke-width="2" d="M149.98,-143.7C150.64,-135.98 151.44,-126.71 152.18,-118.11"/>
<polygon fill="grey" stroke="grey" stroke-width="2" points="155.67,-118.37 153.03,-108.1 148.69,-117.77 155.67,-118.37"/>
</g>
<!-- 3 -->
<g id="node4" class="node">
<title>3</title>
<path fill="none" stroke="#56a9d8" stroke-width="2" stroke-dasharray="5,2" d="M184.5,-252C184.5,-252 154.5,-252 154.5,-252 148.5,-252 142.5,-246 142.5,-240 142.5,-240 142.5,-228 142.5,-228 142.5,-222 148.5,-216 154.5,-216 154.5,-216 184.5,-216 184.5,-216 190.5,-216 196.5,-222 196.5,-228 196.5,-228 196.5,-240 196.5,-240 196.5,-246 190.5,-252 184.5,-252"/>
<text text-anchor="middle" x="169.5" y="-231.5" font-family="sans" font-size="10.00">align</text>
</g>
<!-- 3&#45;&gt;2 -->
<g id="edge7" class="edge">
<title>3&#45;&gt;2</title>
<path fill="none" stroke="grey" stroke-width="2" d="M164.31,-215.7C161.97,-207.9 159.15,-198.51 156.55,-189.83"/>
<polygon fill="grey" stroke="grey" stroke-width="2" points="159.86,-188.68 153.63,-180.1 153.15,-190.69 159.86,-188.68"/>
</g>
<!-- 4 -->
<g id="node5" class="node">
<title>4</title>
<path fill="none" stroke="#5682d8" stroke-width="2" stroke-dasharray="5,2" d="M270,-324C270,-324 221,-324 221,-324 215,-324 209,-318 209,-312 209,-312 209,-300 209,-300 209,-294 215,-288 221,-288 221,-288 270,-288 270,-288 276,-288 282,-294 282,-300 282,-300 282,-312 282,-312 282,-318 276,-324 270,-324"/>
<text text-anchor="middle" x="245.5" y="-303.5" font-family="sans" font-size="10.00">clean_fasta</text>
</g>
<!-- 4&#45;&gt;3 -->
<g id="edge8" class="edge">
<title>4&#45;&gt;3</title>
<path fill="none" stroke="grey" stroke-width="2" d="M226.71,-287.7C217.33,-279.05 205.82,-268.45 195.59,-259.03"/>
<polygon fill="grey" stroke="grey" stroke-width="2" points="197.8,-256.3 188.07,-252.1 193.05,-261.45 197.8,-256.3"/>
</g>
<!-- 7 -->
<g id="node8" class="node">
<title>7</title>
<path fill="none" stroke="#56d8a9" stroke-width="2" stroke-dasharray="5,2" d="M285.5,-180C285.5,-180 205.5,-180 205.5,-180 199.5,-180 193.5,-174 193.5,-168 193.5,-168 193.5,-156 193.5,-156 193.5,-150 199.5,-144 205.5,-144 205.5,-144 285.5,-144 285.5,-144 291.5,-144 297.5,-150 297.5,-156 297.5,-156 297.5,-168 297.5,-168 297.5,-174 291.5,-180 285.5,-180"/>
<text text-anchor="middle" x="245.5" y="-159.5" font-family="sans" font-size="10.00">subsample_genus</text>
</g>
<!-- 4&#45;&gt;7 -->
<g id="edge12" class="edge">
<title>4&#45;&gt;7</title>
<path fill="none" stroke="grey" stroke-width="2" d="M245.5,-287.87C245.5,-263.67 245.5,-219.21 245.5,-190.39"/>
<polygon fill="grey" stroke="grey" stroke-width="2" points="249,-190.19 245.5,-180.19 242,-190.19 249,-190.19"/>
</g>
<!-- 10 -->
<g id="node11" class="node">
<title>10</title>
<path fill="none" stroke="#afd856" stroke-width="2" stroke-dasharray="5,2" d="M510,-108C510,-108 405,-108 405,-108 399,-108 393,-102 393,-96 393,-96 393,-84 393,-84 393,-78 399,-72 405,-72 405,-72 510,-72 510,-72 516,-72 522,-78 522,-84 522,-84 522,-96 522,-96 522,-102 516,-108 510,-108"/>
<text text-anchor="middle" x="457.5" y="-87.5" font-family="sans" font-size="10.00">identified_species_tree</text>
</g>
<!-- 4&#45;&gt;10 -->
<g id="edge15" class="edge">
<title>4&#45;&gt;10</title>
<path fill="none" stroke="grey" stroke-width="2" d="M282.01,-291.56C326.24,-273.32 399.66,-236.38 438.5,-180 451,-161.86 455.52,-137.08 457.04,-118.28"/>
<polygon fill="grey" stroke="grey" stroke-width="2" points="460.54,-118.44 457.62,-108.26 453.55,-118.04 460.54,-118.44"/>
</g>
<!-- 5 -->
<g id="node6" class="node">
<title>5</title>
<path fill="none" stroke="#59d856" stroke-width="2" stroke-dasharray="5,2" d="M304,-396C304,-396 253,-396 253,-396 247,-396 241,-390 241,-384 241,-384 241,-372 241,-372 241,-366 247,-360 253,-360 253,-360 304,-360 304,-360 310,-360 316,-366 316,-372 316,-372 316,-384 316,-384 316,-390 310,-396 304,-396"/>
<text text-anchor="middle" x="278.5" y="-375.5" font-family="sans" font-size="10.00">filter_length</text>
</g>
<!-- 5&#45;&gt;4 -->
<g id="edge9" class="edge">
<title>5&#45;&gt;4</title>
<path fill="none" stroke="grey" stroke-width="2" d="M270.34,-359.7C266.59,-351.73 262.05,-342.1 257.88,-333.26"/>
<polygon fill="grey" stroke="grey" stroke-width="2" points="260.99,-331.66 253.56,-324.1 254.66,-334.64 260.99,-331.66"/>
</g>
<!-- 6 -->
<g id="node7" class="node">
<title>6</title>
<path fill="none" stroke="#d85656" stroke-width="2" stroke-dasharray="5,2" d="M265.5,-468C265.5,-468 225.5,-468 225.5,-468 219.5,-468 213.5,-462 213.5,-456 213.5,-456 213.5,-444 213.5,-444 213.5,-438 219.5,-432 225.5,-432 225.5,-432 265.5,-432 265.5,-432 271.5,-432 277.5,-438 277.5,-444 277.5,-444 277.5,-456 277.5,-456 277.5,-462 271.5,-468 265.5,-468"/>
<text text-anchor="middle" x="245.5" y="-447.5" font-family="sans" font-size="10.00">download</text>
</g>
<!-- 6&#45;&gt;4 -->
<g id="edge10" class="edge">
<title>6&#45;&gt;4</title>
<path fill="none" stroke="grey" stroke-width="2" d="M239.68,-431.56C236.57,-421.33 233.07,-408.08 231.5,-396 229.44,-380.13 229.44,-375.87 231.5,-360 232.6,-351.51 234.66,-342.43 236.87,-334.24"/>
<polygon fill="grey" stroke="grey" stroke-width="2" points="240.28,-335.02 239.68,-324.44 233.55,-333.09 240.28,-335.02"/>
</g>
<!-- 6&#45;&gt;5 -->
<g id="edge11" class="edge">
<title>6&#45;&gt;5</title>
<path fill="none" stroke="grey" stroke-width="2" d="M253.66,-431.7C257.41,-423.73 261.95,-414.1 266.12,-405.26"/>
<polygon fill="grey" stroke="grey" stroke-width="2" points="269.34,-406.64 270.44,-396.1 263.01,-403.66 269.34,-406.64"/>
</g>
<!-- 7&#45;&gt;0 -->
<g id="edge2" class="edge">
<title>7&#45;&gt;0</title>
<path fill="none" stroke="grey" stroke-width="2" d="M244.54,-143.87C243.17,-119.67 240.67,-75.21 239.04,-46.39"/>
<polygon fill="grey" stroke="grey" stroke-width="2" points="242.53,-45.98 238.47,-36.19 235.54,-46.37 242.53,-45.98"/>
</g>
<!-- 8 -->
<g id="node9" class="node">
<title>8</title>
<path fill="none" stroke="#d6d856" stroke-width="2" stroke-dasharray="5,2" d="M363,-108C363,-108 278,-108 278,-108 272,-108 266,-102 266,-96 266,-96 266,-84 266,-84 266,-78 272,-72 278,-72 278,-72 363,-72 363,-72 369,-72 375,-78 375,-84 375,-84 375,-96 375,-96 375,-102 369,-108 363,-108"/>
<text text-anchor="middle" x="320.5" y="-87.5" font-family="sans" font-size="10.00">outgroup_heatmap</text>
</g>
<!-- 7&#45;&gt;8 -->
<g id="edge13" class="edge">
<title>7&#45;&gt;8</title>
<path fill="none" stroke="grey" stroke-width="2" d="M264.04,-143.7C273.3,-135.05 284.66,-124.45 294.76,-115.03"/>
<polygon fill="grey" stroke="grey" stroke-width="2" points="297.25,-117.49 302.17,-108.1 292.48,-112.37 297.25,-117.49"/>
</g>
<!-- 8&#45;&gt;0 -->
<g id="edge3" class="edge">
<title>8&#45;&gt;0</title>
<path fill="none" stroke="grey" stroke-width="2" d="M299.98,-71.7C289.63,-62.97 276.91,-52.24 265.66,-42.75"/>
<polygon fill="grey" stroke="grey" stroke-width="2" points="267.68,-39.88 257.78,-36.1 263.17,-45.23 267.68,-39.88"/>
</g>
<!-- 9 -->
<g id="node10" class="node">
<title>9</title>
<path fill="none" stroke="#d8ac56" stroke-width="2" stroke-dasharray="5,2" d="M417,-180C417,-180 328,-180 328,-180 322,-180 316,-174 316,-168 316,-168 316,-156 316,-156 316,-150 322,-144 328,-144 328,-144 417,-144 417,-144 423,-144 429,-150 429,-156 429,-156 429,-168 429,-168 429,-174 423,-180 417,-180"/>
<text text-anchor="middle" x="372.5" y="-159.5" font-family="sans" font-size="10.00">download_outgroup</text>
</g>
<!-- 9&#45;&gt;8 -->
<g id="edge14" class="edge">
<title>9&#45;&gt;8</title>
<path fill="none" stroke="grey" stroke-width="2" d="M359.65,-143.7C353.47,-135.39 345.96,-125.28 339.18,-116.14"/>
<polygon fill="grey" stroke="grey" stroke-width="2" points="341.98,-114.04 333.21,-108.1 336.36,-118.22 341.98,-114.04"/>
</g>
<!-- 9&#45;&gt;10 -->
<g id="edge16" class="edge">
<title>9&#45;&gt;10</title>
<path fill="none" stroke="grey" stroke-width="2" d="M393.51,-143.7C404.22,-134.88 417.39,-124.03 429,-114.47"/>
<polygon fill="grey" stroke="grey" stroke-width="2" points="431.24,-117.16 436.73,-108.1 426.79,-111.76 431.24,-117.16"/>
</g>
<!-- 10&#45;&gt;0 -->
<g id="edge4" class="edge">
<title>10&#45;&gt;0</title>
<path fill="none" stroke="grey" stroke-width="2" d="M403.96,-71.97C363.91,-59.22 310.15,-42.12 274.7,-30.84"/>
<polygon fill="grey" stroke="grey" stroke-width="2" points="275.36,-27.37 264.77,-27.68 273.24,-34.04 275.36,-27.37"/>
</g>
<!-- 11&#45;&gt;0 -->
<g id="edge5" class="edge">
<title>11&#45;&gt;0</title>
<path fill="none" stroke="grey" stroke-width="2" d="M175.02,-71.7C185.37,-62.97 198.09,-52.24 209.34,-42.75"/>
<polygon fill="grey" stroke="grey" stroke-width="2" points="211.83,-45.23 217.22,-36.1 207.32,-39.88 211.83,-45.23"/>
</g>
</g>
</svg>
